<svg width="110" height="42" viewBox="0 0 110 42" fill="none" xmlns="http://www.w3.org/2000/svg">
<g opacity="0.5" clip-path="url(#clip0_45_2247)">
<path d="M20.7482 42C23.988 42 26.7719 40.0402 27.9891 37.2441C26.4997 36.4705 25.4774 34.9159 25.4774 33.1181C25.4774 31.5893 26.2202 30.2373 27.3566 29.3901C26.8675 30.1268 26.5806 31.011 26.5806 31.9614C26.5806 34.5254 28.6547 36.6068 31.2179 36.6068C32.2513 36.6068 33.2037 36.2642 33.9723 35.6895C34.557 35.2548 35.0388 34.6838 35.3661 34.0244C36.2192 34.7464 37.3225 35.1848 38.525 35.1848C40.5476 35.1848 42.2834 33.9581 43.0299 32.2045C43.975 32.2119 44.9275 32.2193 45.8873 32.223C47.6267 34.6985 50.4988 36.3194 53.7497 36.3194C57.0005 36.3194 59.8653 34.7059 61.6047 32.234C67.8674 32.2082 73.8102 32.1493 79.2455 32.0572C79.444 33.8844 80.9886 35.3101 82.8677 35.3101C84.3093 35.3101 85.556 34.4665 86.1444 33.2471C86.5121 33.5676 86.9939 33.7628 87.5197 33.7628C88.6193 33.7628 89.5239 32.9119 89.6122 31.8325C102.053 31.4936 110.007 30.9741 110.007 30.3921C110.007 30.0716 107.562 29.7658 103.263 29.5043C103.59 29.1322 103.792 28.6459 103.792 28.1081C103.792 26.9476 102.851 26.0046 101.693 26.0046C101.457 26.0046 101.233 26.0451 101.02 26.1151C100.678 23.8311 98.7176 22.0812 96.3419 22.0812C95.6396 22.0812 94.9739 22.2396 94.3745 22.5122C94.3892 22.6927 94.4002 22.8696 94.4002 23.0501C94.4002 24.5126 93.97 25.8719 93.2382 27.0213C93.5471 26.2145 93.7236 25.3451 93.7236 24.4279C93.7236 20.4345 90.4948 17.2001 86.5084 17.2001C83.4047 17.2001 80.7679 19.1636 79.7493 21.9154C80.1133 19.5504 81.5917 17.5574 83.6363 16.4928C81.8895 12.9231 78.2305 10.4659 73.9941 10.4659C68.4705 10.4659 63.9252 14.6471 63.3294 20.0182C62.9323 19.9298 62.5241 19.8819 62.1012 19.8819C61.6231 19.8819 61.1597 19.9483 60.7148 20.0588C58.9643 18.2131 56.493 17.0601 53.7497 17.0601C52.9884 17.0601 52.2493 17.1522 51.5358 17.318C51.4255 16.8243 51.2784 16.3454 51.0945 15.8849C49.6824 12.33 46.2219 9.81756 42.1694 9.81756C36.8665 9.81756 32.5639 14.124 32.5639 19.4399C32.5639 20.5266 32.7441 21.5655 33.075 22.5417C32.1998 21.0755 31.696 19.3588 31.696 17.5279C31.696 12.1237 36.0685 7.74353 41.4633 7.74353C41.5074 7.74353 41.5479 7.74353 41.592 7.74353C38.9553 3.12762 33.9797 0 28.2723 0C19.8068 0 12.941 6.87413 12.941 15.3581C12.941 16.0507 12.9924 16.7285 13.0807 17.3953C10.58 18.5557 8.8406 21.0866 8.8406 24.03C8.8406 24.0484 8.8406 24.0668 8.8406 24.0889C8.5464 24.0079 8.24117 23.9637 7.92491 23.9637C5.98689 23.9637 4.4203 25.5367 4.4203 27.4744C4.4203 28.2812 4.69611 29.0217 5.15211 29.6148C1.84976 29.8542 0 30.1195 0 30.3994C0 30.8599 4.99398 31.2799 13.2572 31.6041C12.9998 32.3851 12.8527 33.2213 12.8527 34.0907C12.8527 38.4598 16.3867 42 20.7482 42V42ZM92.146 29.0327C92.1239 29.0327 92.0982 29.0327 92.0761 29.0327C92.0908 29.0143 92.1018 28.9959 92.1165 28.9775C92.1276 28.9959 92.1349 29.018 92.146 29.0364V29.0327ZM10.9735 29.2022C11.0029 29.2316 11.036 29.2574 11.0655 29.2869C11.0177 29.2869 10.9698 29.2906 10.922 29.2943C10.9404 29.2648 10.9588 29.2353 10.9772 29.2059L10.9735 29.2022Z" fill="#D9BFF3"/>
</g>
<defs>
<clipPath id="clip0_45_2247">
<rect width="110" height="42" fill="white"/>
</clipPath>
</defs>
</svg>
