<svg width="211" height="83" viewBox="0 0 211 83" fill="none" xmlns="http://www.w3.org/2000/svg">
<g opacity="0.6" clip-path="url(#clip0_45_2213)">
<path d="M174.526 59.5271C174.526 59.0608 161.362 58.667 143.099 58.5271C143.522 59.1281 143.852 59.8018 144.074 60.522C161.831 60.3769 174.531 59.9883 174.531 59.5271H174.526Z" fill="#CDB5E6"/>
<path d="M199.296 37.8211C198.145 37.8211 197.206 38.759 197.206 39.9197C197.206 41.0804 198.14 42.0183 199.296 42.0183C200.452 42.0183 201.386 41.0804 201.386 39.9197C201.386 38.759 200.452 37.8211 199.296 37.8211Z" fill="#CDB5E6"/>
<path d="M211 45.4951C211 45.0391 202.795 44.6194 189.078 44.2877C188.552 42.925 187.241 41.9612 185.704 41.9612C184.919 41.9612 184.192 42.2151 183.598 42.64C183.696 42.2617 183.758 41.8679 183.758 41.4585C183.758 38.9299 181.715 36.8831 179.201 36.8831C176.688 36.8831 174.645 38.9351 174.645 41.4585C174.645 41.5466 174.655 41.6347 174.66 41.7228C174.01 41.3445 173.251 41.1269 172.446 41.1269C171.739 41.1269 171.079 41.2979 170.485 41.5881C169.288 38.9247 166.662 37.0541 163.591 36.9505C163.612 36.7018 163.627 36.4479 163.627 36.194C163.627 31.2144 159.607 27.183 154.653 27.183C149.699 27.183 145.679 31.2196 145.679 36.194C145.679 36.2769 145.69 36.3546 145.69 36.4323C144.162 35.4737 142.361 34.9089 140.421 34.9089C139.961 34.9089 139.507 34.9504 139.064 35.0125C138.63 25.8099 131.06 18.4778 121.786 18.4778C117.813 18.4778 114.154 19.8251 111.233 22.0895C108.87 9.51873 97.8832 0 84.6776 0C71.4721 0 61.0841 9.01093 58.3439 21.079C57.5802 20.9858 56.8009 20.934 56.0166 20.934C49.0035 20.934 42.8471 24.6285 39.369 30.1781C37.2274 28.3956 34.4717 27.3229 31.4735 27.3229C24.6359 27.3229 19.0885 32.8932 19.0885 39.759C19.0885 41.4948 19.4445 43.1478 20.0844 44.6505C13.7113 44.9044 10.1403 45.1894 10.1403 45.4951C10.1403 45.8008 13.7526 46.0858 20.1825 46.3397C22.7472 40.1217 28.852 35.738 35.9579 35.738C43.0639 35.738 49.0964 40.0543 51.7076 46.2723C53.2041 45.7386 54.7884 45.464 56.4087 45.464C59.3657 45.464 62.1936 46.3811 64.5468 48.0548C68.799 43.3965 74.8057 40.702 81.2047 40.702C84.5073 40.702 87.7223 41.4171 90.6689 42.7851C94.0232 36.1007 100.933 31.6911 108.586 31.6911C118.731 31.6911 127.138 39.2926 128.459 49.1222C128.959 49.0445 129.465 49.0031 129.976 49.0031C133.98 49.0031 137.417 51.3763 138.971 54.8221C139.44 54.8894 139.915 54.9361 140.4 54.9361C145.096 54.9361 149.028 51.6716 150.081 47.2776C152.032 47.262 153.946 47.2465 155.83 47.2257C156.841 50.4073 159.808 52.708 163.312 52.708C166.032 52.708 168.432 51.3193 169.84 49.2051C170.568 49.7337 171.466 50.0446 172.431 50.0446C174.413 50.0446 176.084 48.744 176.662 46.9459C178.613 46.9148 180.491 46.8786 182.303 46.8423C182.814 48.231 184.14 49.2207 185.698 49.2207C187.257 49.2207 188.681 48.1584 189.146 46.692C202.816 46.3604 210.99 45.9407 210.99 45.4847L211 45.4951Z" fill="#E3DAEC"/>
<path d="M45.3085 11.7209C45.3085 14.7004 47.7132 17.1099 50.6753 17.1099C53.6374 17.1099 56.0422 14.6952 56.0422 11.7209C56.0422 8.74664 53.6374 6.33199 50.6753 6.33199C47.7132 6.33199 45.3085 8.74664 45.3085 11.7209V11.7209Z" fill="#CDB5E6"/>
<path d="M129.986 52.1121C128.227 52.1121 126.632 52.7857 125.424 53.8894C125.507 53.2106 125.553 52.5267 125.553 51.8271C125.553 42.4224 117.962 34.8002 108.596 34.8002C100.809 34.8002 94.2502 40.0751 92.2583 47.2569C89.1156 45.0858 85.3123 43.8111 81.2098 43.8111C74.4032 43.8111 68.417 47.3087 64.9234 52.6148C62.9005 50.1483 59.8404 48.5782 56.4087 48.5782C53.9162 48.5782 51.625 49.4177 49.7827 50.8167C48.7867 44.0443 42.9761 38.8522 35.9579 38.8522C28.2379 38.8522 21.9834 45.1324 21.9834 52.8842C21.9834 55.133 22.5149 57.2627 23.4541 59.1488C22.3756 58.5426 21.1371 58.1902 19.8109 58.1902C17.628 58.1902 15.667 59.1385 14.3047 60.6412C13.6184 59.4338 12.3282 58.6203 10.8472 58.6203C8.64885 58.6203 6.8685 60.408 6.8685 62.6154C6.8685 63.2475 7.01815 63.8486 7.28134 64.3771C2.61114 64.7347 -0.00520325 65.1285 -0.00520325 65.5534C-0.00520325 66.1078 4.59275 66.626 12.4831 67.0613C13.1281 70.5382 16.1573 73.1704 19.8057 73.1704C23.2426 73.1704 26.1324 70.8283 26.9942 67.652C30.6323 67.7608 34.5697 67.8592 38.7445 67.9473C38.8116 72.103 42.1814 75.4556 46.3355 75.4556C49.6589 75.4556 52.4816 73.3103 53.5085 70.3205C54.4323 70.5744 55.4024 70.7195 56.4036 70.7195C58.6432 70.7195 60.7228 70.0459 62.4671 68.8904C64.8254 77.0463 72.3183 83.0104 81.2046 83.0104C89.4716 83.0104 96.5311 77.8495 99.3745 70.5641C100.742 72.16 102.765 73.1704 105.025 73.1704C107.91 73.1704 110.408 71.5227 111.646 69.1132C113.266 70.7402 115.506 71.7455 117.978 71.7455C121.136 71.7455 123.912 70.0977 125.507 67.6157C141.339 67.1131 151.34 66.3773 151.34 65.5534C151.34 65.0508 147.558 64.574 140.973 64.1699C141.174 63.6932 141.288 63.1646 141.288 62.6154C141.288 60.408 139.507 58.6203 137.309 58.6203C137.123 58.6203 136.937 58.6359 136.757 58.6618C136.612 55.0242 133.64 52.1173 129.981 52.1173L129.986 52.1121Z" fill="#CDB5E6"/>
</g>
<defs>
<clipPath id="clip0_45_2213">
<rect width="211" height="83" fill="white"/>
</clipPath>
</defs>
</svg>
