<svg width="210" height="73" viewBox="0 0 210 73" fill="none" xmlns="http://www.w3.org/2000/svg">
<g clip-path="url(#clip0_45_2228)">
<path d="M20.9803 57.5534C23.8102 57.5534 26.5068 57.4867 28.9687 57.3694C31.1398 61.1621 35.2233 63.72 39.9069 63.72C42.4888 63.72 44.8893 62.9412 46.8871 61.6102C47.5592 67.5235 52.5763 72.1191 58.6709 72.1191C64.4134 72.1191 69.2038 68.0383 70.2973 62.6158C72.2577 64.0481 74.6716 64.8963 77.2855 64.8963C80.0914 64.8963 82.6679 63.9201 84.7003 62.2904C85.4552 68.1316 90.4429 72.6472 96.4895 72.6472C102.536 72.6472 107.137 68.4784 108.172 62.9679C109.66 63.6373 111.311 64.0161 113.05 64.0161C118.649 64.0161 123.343 60.1433 124.605 54.9342C125.773 55.1876 126.987 55.3263 128.229 55.3263C131.081 55.3263 133.767 54.6194 136.127 53.3792C137.405 54.9102 139.325 55.8837 141.472 55.8837C141.568 55.8837 141.664 55.881 141.76 55.8757C142.315 58.839 144.913 61.0795 148.036 61.0795C149.954 61.0795 151.672 60.234 152.843 58.895C154.83 62.109 158.382 64.2508 162.439 64.2508C167.336 64.2508 171.503 61.1275 173.06 56.7639C176.522 57.2013 181.347 57.492 186.756 57.5454C187.815 60.1193 190.346 61.9303 193.302 61.9303C196.404 61.9303 199.036 59.9352 199.991 57.1586C205.72 56.7239 209.51 55.9717 209.51 55.1182C209.51 54.2647 205.795 53.5259 200.157 53.0885C199.372 50.0345 196.601 47.7753 193.302 47.7753C192.742 47.7753 192.198 47.842 191.672 47.9647C191.344 45.8629 189.912 44.1292 187.986 43.3718C187.85 41.382 187.17 39.5443 186.092 38C184.159 35.2287 180.947 33.415 177.312 33.415C171.401 33.415 166.608 38.208 166.608 44.1186C166.608 45.4789 166.864 46.7778 167.328 47.9754C166.16 46.3004 165.459 44.2786 165.411 42.0942C164.464 41.8354 163.469 41.6967 162.439 41.6967C161.981 41.6967 161.53 41.7261 161.084 41.7794C161.004 35.5568 155.937 30.5371 149.695 30.5371C148.292 30.5371 146.948 30.7931 145.708 31.2572C145.969 32.4441 146.113 33.6764 146.113 34.9433C146.113 37.0398 145.732 39.0455 145.038 40.9019C145.166 40.0591 145.233 39.1975 145.233 38.32C145.233 28.9314 137.621 21.3191 128.232 21.3191C120.94 21.3191 114.72 25.9121 112.306 32.3641C113.088 27.2404 116.158 22.8688 120.438 20.3243C120.017 18.8439 119.476 17.417 118.827 16.0487C114.341 6.56137 104.683 0 93.4942 0C78.3977 0 66.0911 11.9412 65.5043 26.8963C65.3443 25.7014 65.2589 24.4825 65.2589 23.2422C65.2589 19.2894 66.1018 15.5339 67.6141 12.1412C66.5205 11.4451 65.2243 11.0396 63.8346 11.0396C59.9431 11.0396 56.7878 14.195 56.7878 18.0865C56.7878 18.9693 56.9532 19.8148 57.2492 20.5936C48.4847 21.9513 41.774 29.5182 41.7553 38.6588C41.1499 38.5708 40.5337 38.5227 39.9043 38.5227C38.8134 38.5227 37.7545 38.6614 36.7436 38.9228C36.3142 35.6795 34.0631 33.0149 31.0518 31.9907C30.1902 31.6973 29.2674 31.5346 28.3045 31.5346C23.6022 31.5346 19.7881 35.3461 19.7881 40.0511C19.7881 42.9263 21.215 45.4682 23.3995 47.0099C20.9937 46.191 19.0733 44.3266 18.1797 41.9581C15.9126 43.2757 14.3869 45.7269 14.3869 48.5382C14.3869 50.0985 14.859 51.5495 15.6645 52.7577C6.65198 53.0298 -0.00274658 53.982 -0.00274658 55.1155C-0.00274658 56.4625 9.39122 57.5534 20.9777 57.5534H20.9803Z" fill="#F4EDF5"/>
<path d="M9.33803 44.8681C7.78037 44.8681 6.51877 46.1297 6.51877 47.6873C6.51877 49.245 7.78037 50.5066 9.33803 50.5066C10.8957 50.5066 12.1573 49.245 12.1573 47.6873C12.1573 46.1297 10.8957 44.8681 9.33803 44.8681Z" fill="#F4EDF5"/>
<path d="M15.1819 40.4352C15.1819 39.4456 14.3791 38.6428 13.3895 38.6428C12.4 38.6428 11.5972 39.4456 11.5972 40.4352C11.5972 41.4247 12.4 42.2275 13.3895 42.2275C14.3791 42.2275 15.1819 41.4247 15.1819 40.4352Z" fill="#F4EDF5"/>
<path d="M148.522 26.7496C148.522 27.7392 149.325 28.542 150.314 28.542C151.304 28.542 152.107 27.7392 152.107 26.7496C152.107 25.7601 151.304 24.9572 150.314 24.9572C149.325 24.9572 148.522 25.7601 148.522 26.7496Z" fill="#F4EDF5"/>
<path d="M50.888 18.1772C50.888 19.1667 51.6908 19.9696 52.6804 19.9696C53.6699 19.9696 54.4728 19.1667 54.4728 18.1772C54.4728 17.1876 53.6699 16.3848 52.6804 16.3848C51.6908 16.3848 50.888 17.1876 50.888 18.1772Z" fill="#F4EDF5"/>
</g>
<defs>
<clipPath id="clip0_45_2228">
<rect width="209.511" height="72.6472" fill="white"/>
</clipPath>
</defs>
</svg>
