<?xml version="1.0" encoding="utf-8"?>
<!-- Generator: Adobe Illustrator 27.0.0, SVG Export Plug-In . SVG Version: 6.00 Build 0)  -->
<svg version="1.1" id="Layer_1" xmlns="http://www.w3.org/2000/svg" xmlns:xlink="http://www.w3.org/1999/xlink" x="0px" y="0px"
	 viewBox="0 0 82.5 76.6" style="enable-background:new 0 0 82.5 76.6;" xml:space="preserve">
<style type="text/css">
	.st0{fill:#555555;}
</style>
<path class="st0" d="M37.1,16.3H22.4c2.8,0,5.4,0.5,7.9,1.3h-4.7c-2.5-0.8-5.1-1.3-7.9-1.3H0.2c7.3,0,23.3,4.9,25.2,23.3h17.4
	c-0.1-1.2-0.3-2.3-0.5-3.4H47c0.2,1.1,0.4,2.2,0.5,3.4h14.8C61.3,26.6,50.4,16.3,37.1,16.3z M29.5,19.3h4.7c0,0,0,0,0.1,0
	c2.1,1.1,4.1,2.6,5.8,4.3h-4.7C33.6,21.9,31.6,20.4,29.5,19.3z M41.9,34.6c-1-3.5-2.7-6.6-5-9.3h4.7c2.3,2.7,4,5.9,5,9.3H41.9z"/>
<path class="st0" d="M26.7,0c-1.9,0.1-3.6,0.5-5.3,1.2h-2C21.4,0.5,23.4,0,25.7,0h-9.4C7.8,0,0.8,6.4,0,14.6h9.6c0.1-1,0.3-2,0.6-3
	h1.9c-0.3,1-0.5,1.9-0.6,3h11.4C24.2,4.2,32.7,0.4,37.7,0.1C37.7,0.1,26.4,0,26.7,0z M12.7,10h-1.9c0.5-1.2,1.2-2.4,2-3.4h1.9
	C13.9,7.6,13.2,8.8,12.7,10z M16.1,4.9h-1.9c0.7-0.7,1.4-1.3,2.3-1.9h1.9C17.6,3.5,16.8,4.2,16.1,4.9z"/>
<path class="st0" d="M5.6,16.3c0.1,0,0.2,0,0.3,0L5.6,16.3z"/>
<path class="st0" d="M21,16.4c0.5,0,0.9,0,1.4,0L21,16.4L21,16.4z"/>
<path class="st0" d="M82.5,76.6c-0.1-18.7-7.5-33.9-16.8-35.1l0-0.1H44.4c0.8,0.5,1.3,2.9,1.5,6.7h-5.9c0.2-4,0.7-6.5,1.6-6.7H21.1
	l0,0C11.4,42,3.7,57.5,3.6,76.6h36.1c0-4.4,0-8.5,0-12.4h6.5c0,3.9,0,8,0,12.4H82.5z M39.7,62.5c0-4.9,0-9.3,0.2-12.7H46
	c0.2,3.5,0.2,7.8,0.2,12.7H39.7z"/>
</svg>
